# xmcd
# 
# Track frame offsets:
#     150
#     27385
#     60797
#     83982
#     101212
#     118255
#     137087
# 
# Disc length: 2038
# 
# Revision: 1
# Processed by: cddbd v1.5.2PL0 Copyright (c) Steve Scherf et al.
# Submitted via: BonkEnc v1.0.8
# 
DISCID=5b07f407
DTITLE=Jim Pepper - West End Avenue
DYEAR=1989
DGENRE=Contemporary Jazz
TTITLE0=Three For Gemini
TTITLE1=Ballad For Nori
TTITLE2=Traces Of Darkness
TTITLE3=Hey New Day
TTITLE4=Mr. R.B.
TTITLE5=Sentimental Walk
TTITLE6=In The Hall
EXTD=
EXTT0=
EXTT1=
EXTT2=
EXTT3=
EXTT4=
EXTT5=
EXTT6=
PLAYORDER=
